<svg width="152" height="152" viewBox="0 0 152 152" fill="none" xmlns="http://www.w3.org/2000/svg">
<g clip-path="url(#clip0_2_29)">
<path d="M123.975 46.9909H113.698C115.546 41.0038 115.844 34.3467 114.333 27.949H127.377C131.959 27.949 135.672 24.2372 135.672 19.6543C135.672 15.086 131.961 11.3682 127.395 11.3593C125.224 4.68023 118.918 0.000890625 111.759 0.000890625C106.814 0.000890625 102.126 2.27198 99.0292 6.05002C93.2125 2.16778 86.4111 0.0552187 79.2912 0.000890625C79.1982 0.000296875 79.1065 0 79.0139 0C69.7837 0 60.9995 3.45978 54.2536 9.75917C53.355 10.5984 53.3066 12.0074 54.1461 12.9063C54.9854 13.8047 56.3941 13.8537 57.2933 13.0138C63.2106 7.48778 70.916 4.45312 79.0145 4.45312C87.3445 4.45312 95.4744 7.68669 101.676 13.9911C111.41 23.8875 113.529 38.5777 107.448 50.6202C106.894 51.7177 107.334 53.0572 108.432 53.6112C109.53 54.166 110.869 53.7252 111.423 52.6273C111.62 52.2375 111.809 51.8418 111.992 51.444H123.975C125.912 51.444 127.731 52.1972 129.098 53.5649C130.52 54.9857 131.272 56.8783 131.217 58.8923C131.107 62.7724 127.791 65.9291 123.824 65.9291H107.89C103.846 52.1378 91.0813 42.0366 75.9994 42.0366C60.9176 42.0366 48.1525 52.1378 44.1091 65.9291H34.6064C26.983 65.9291 20.7807 59.7256 20.7807 52.1004C20.7807 44.4769 26.983 38.2749 34.6064 38.2749H43.8036C45.6416 38.2749 47.1351 36.8365 47.204 35.0042C47.4023 29.9597 48.7478 25.1735 51.2038 20.7795C51.8038 19.706 51.4199 18.3492 50.3464 17.7496C49.2723 17.1493 47.9162 17.5331 47.3165 18.6069C44.7189 23.2551 43.1689 28.4932 42.8082 33.8218H34.6064C24.5272 33.8218 16.3275 42.0218 16.3275 52.1004C16.3275 62.1811 24.5275 70.3822 34.6064 70.3822H43.1318C42.8961 71.9759 42.7726 73.6054 42.7726 75.2635C42.7726 93.5836 57.6816 108.491 75.9997 108.491C87.4347 108.491 97.9269 102.721 104.066 93.0567C104.725 92.0188 104.418 90.6428 103.38 89.9831C102.343 89.3243 100.966 89.6307 100.307 90.6689C99.1037 92.5627 97.706 94.2822 96.1513 95.8119L92.6636 91.6566C96.436 87.8257 98.7629 82.8344 99.2714 77.49H104.686C104.577 78.9058 104.368 80.3094 104.055 81.684C103.782 82.883 104.532 84.0765 105.731 84.3496C106.929 84.6227 108.124 83.8722 108.397 82.6732C109.302 78.7007 109.478 74.515 108.867 70.3825H123.824C130.178 70.3825 135.492 65.2846 135.669 59.0164C135.757 55.765 134.542 52.7107 132.247 50.4162C130.039 48.2072 127.101 46.9909 123.975 46.9909V46.9909ZM102.581 8.74831C104.839 6.06516 108.207 4.45402 111.759 4.45402C117.431 4.45402 122.369 8.48172 123.5 14.0306C123.712 15.0676 124.624 15.8125 125.682 15.8125H127.377C129.496 15.8125 131.219 17.5358 131.219 19.6543C131.219 21.774 129.498 23.4959 127.377 23.4959H112.97C111.204 18.8346 108.464 14.5418 104.85 10.8683C104.12 10.1252 103.361 9.41984 102.581 8.74831V8.74831ZM47.2254 75.2632C47.2254 59.3976 60.1332 46.4894 75.9994 46.4894C91.1163 46.4894 103.548 58.2068 104.688 73.0363H99.2702C98.1451 61.1859 88.1398 51.8843 75.9997 51.8843C63.1082 51.8843 52.6205 62.372 52.6205 75.2632C52.6205 81.4373 55.0433 87.2979 59.3349 91.6563L55.8624 95.7941C50.5352 90.5691 47.2254 83.296 47.2254 75.2632V75.2632ZM88.1624 89.7584C87.221 90.549 87.0987 91.9532 87.889 92.8946L92.7441 98.6795C87.9409 102.122 82.1269 104.037 75.9991 104.037C69.7644 104.037 63.9873 102.043 59.2696 98.6605L64.1084 92.8949C64.8984 91.9532 64.7763 90.5493 63.835 89.7587C59.5374 86.1481 57.0727 80.8643 57.0727 75.2632C57.0727 64.8274 65.5628 56.3374 75.9988 56.3374C86.4349 56.3374 94.9249 64.8274 94.9249 75.2629C94.9252 80.8643 92.4602 86.1475 88.1624 89.7584V89.7584Z" fill="url(#paint0_radial_2_29)"/>
<path d="M75.9991 68.0319C74.8158 68.0319 73.6989 68.3195 72.7118 68.8254L69.1754 65.289C68.3056 64.4198 66.896 64.4198 66.0262 65.289C65.1566 66.1589 65.1566 67.5685 66.0262 68.4383L69.562 71.9741C69.0552 72.9615 68.7675 74.0789 68.7675 75.2632C68.7675 79.2508 72.0115 82.4947 75.9991 82.4947C79.9864 82.4947 83.2304 79.2508 83.2304 75.2632C83.2304 71.2758 79.9864 68.0319 75.9991 68.0319ZM75.9991 78.0416C74.4672 78.0416 73.2207 76.7953 73.2207 75.2632C73.2207 73.731 74.4669 72.485 75.9991 72.485C77.531 72.485 78.7773 73.731 78.7773 75.2632C78.7773 76.7953 77.5313 78.0416 75.9991 78.0416Z" fill="url(#paint1_radial_2_29)"/>
<path d="M83.3138 141.944L78.2263 145.502V121.888C78.2263 120.658 77.2297 119.661 75.9997 119.661C74.7698 119.661 73.7731 120.658 73.7731 121.888V145.502L68.6856 141.944C67.6777 141.239 66.2898 141.485 65.5847 142.493C64.8803 143.5 65.1258 144.889 66.1337 145.594L74.7237 151.601C74.727 151.603 74.7303 151.605 74.7335 151.607C75.4834 152.127 76.502 152.136 77.2656 151.607C77.2688 151.605 77.2724 151.604 77.2754 151.601L85.8655 145.594C86.8733 144.889 87.1189 143.5 86.4144 142.493C85.7099 141.485 84.3217 141.239 83.3138 141.944V141.944Z" fill="url(#paint2_radial_2_29)"/>
<path d="M125.491 141.944L120.404 145.502V103.865C120.404 102.635 119.407 101.639 118.177 101.639C116.947 101.639 115.951 102.635 115.951 103.865V145.502L110.863 141.944C109.855 141.239 108.467 141.486 107.762 142.493C107.058 143.501 107.303 144.889 108.311 145.594L116.901 151.601C116.905 151.603 116.908 151.605 116.911 151.607C117.664 152.129 118.684 152.134 119.443 151.607C119.446 151.605 119.45 151.604 119.453 151.601L128.043 145.594C129.051 144.889 129.296 143.5 128.592 142.493C127.888 141.485 126.499 141.239 125.491 141.944Z" fill="url(#paint3_radial_2_29)"/>
<path d="M41.1365 141.944L36.0489 145.502V103.865C36.0489 102.635 35.0523 101.639 33.8224 101.639C32.5924 101.639 31.5958 102.635 31.5958 103.865V145.502L26.508 141.944C25.5004 141.239 24.1122 141.485 23.4071 142.493C22.7026 143.5 22.9481 144.889 23.956 145.594L32.5461 151.601C32.5494 151.603 32.5526 151.605 32.5559 151.607C33.3215 152.138 34.3404 152.125 35.088 151.607C35.0912 151.605 35.0948 151.604 35.0978 151.601L43.6878 145.594C44.6957 144.889 44.9412 143.5 44.2367 142.493C43.5323 141.485 42.1438 141.239 41.1365 141.944V141.944Z" fill="url(#paint4_radial_2_29)"/>
</g>
<defs>
<radialGradient id="paint0_radial_2_29" cx="0" cy="0" r="1" gradientUnits="userSpaceOnUse" gradientTransform="translate(76.0003 54.2453) rotate(90) scale(54.2453 59.6728)">
<stop stop-color="#F66280"/>
<stop offset="1" stop-color="#F88187"/>
</radialGradient>
<radialGradient id="paint1_radial_2_29" cx="0" cy="0" r="1" gradientUnits="userSpaceOnUse" gradientTransform="translate(74.3022 73.5659) rotate(90) scale(8.92881 8.92818)">
<stop stop-color="#F66280"/>
<stop offset="1" stop-color="#F88187"/>
</radialGradient>
<radialGradient id="paint2_radial_2_29" cx="0" cy="0" r="1" gradientUnits="userSpaceOnUse" gradientTransform="translate(75.9996 135.831) rotate(90) scale(16.1696 10.8168)">
<stop stop-color="#F66280"/>
<stop offset="1" stop-color="#F88187"/>
</radialGradient>
<radialGradient id="paint3_radial_2_29" cx="0" cy="0" r="1" gradientUnits="userSpaceOnUse" gradientTransform="translate(118.177 126.82) rotate(90) scale(25.1809 10.8169)">
<stop stop-color="#F66280"/>
<stop offset="1" stop-color="#F88187"/>
</radialGradient>
<radialGradient id="paint4_radial_2_29" cx="0" cy="0" r="1" gradientUnits="userSpaceOnUse" gradientTransform="translate(33.8219 126.82) rotate(90) scale(25.1809 10.8168)">
<stop stop-color="#F66280"/>
<stop offset="1" stop-color="#F88187"/>
</radialGradient>
<clipPath id="clip0_2_29">
<rect width="152" height="152" fill="white"/>
</clipPath>
</defs>
</svg>
