<svg width="119" height="105" viewBox="0 0 119 105" fill="none" xmlns="http://www.w3.org/2000/svg">
<path d="M59.5 104.795C58.6807 104.795 57.8614 104.507 57.2044 103.932C51.976 99.3576 47.0661 95.1824 42.318 91.1448C16.835 69.4745 0 55.1584 0 34.2584C0 15.5454 13.3415 0.205078 31.6094 0.205078C41.4555 0.205078 50.01 4.933 56.3481 13.878C57.5965 15.6398 58.64 17.3994 59.5 19.035C60.3597 17.3996 61.4035 15.6398 62.6519 13.878C68.99 4.933 77.5445 0.205078 87.3906 0.205078C105.661 0.205078 119 15.5484 119 34.2584C119 55.1582 102.165 69.4742 76.6825 91.1443C71.9341 95.1822 67.0242 99.3574 61.7959 103.932C61.1386 104.507 60.3193 104.795 59.5 104.795ZM31.6094 7.17773C17.5641 7.17773 6.97266 18.82 6.97266 34.2584C6.97266 51.9348 22.8308 65.4201 46.8349 85.8328C50.9022 89.2917 55.0879 92.851 59.5 96.6834C63.9121 92.8508 68.0978 89.2915 72.1654 85.8323C96.1694 65.4201 112.027 51.9348 112.027 34.2584C112.027 18.82 101.436 7.17773 87.3906 7.17773C79.8548 7.17773 73.4837 10.735 68.4538 17.7508C64.4866 23.2848 62.8759 28.9675 62.8604 29.0245C62.4404 30.5324 61.0658 31.5788 59.5009 31.5788C59.4986 31.5788 59.4963 31.5788 59.4942 31.5788C57.9286 31.5758 56.5564 30.5329 56.1396 29.0245C56.1238 28.9678 54.5132 23.2848 50.5459 17.7508C45.5163 10.735 39.145 7.17773 31.6094 7.17773Z" fill="url(#paint0_radial_2_37)"/>
<defs>
<radialGradient id="paint0_radial_2_37" cx="0" cy="0" r="1" gradientUnits="userSpaceOnUse" gradientTransform="translate(59.5 52.5) rotate(90) scale(52.2949 59.5)">
<stop stop-color="#F66280"/>
<stop offset="1" stop-color="#F88187"/>
</radialGradient>
</defs>
</svg>
