<svg width="118" height="134" viewBox="0 0 118 134" fill="none" xmlns="http://www.w3.org/2000/svg">
<path d="M39.2607 56.4035C39.2607 51.8346 36.3992 46.3825 30.5135 39.7383C26.4978 35.2053 22.5311 31.7988 22.3645 31.6567L19.8178 29.4771L17.2712 31.6567C17.1046 31.7988 13.1379 35.2053 9.12315 39.7383C3.23653 46.3825 0.375 51.8346 0.375 56.4035C0.375 67.0368 9.09657 75.6878 19.8178 75.6878C30.5391 75.6878 39.2607 67.0358 39.2607 56.4035ZM19.8178 67.8526C13.417 67.8526 8.20918 62.7164 8.20918 56.4024C8.20918 52.4429 14.3555 45.0933 19.8158 39.9131C25.1923 45.033 31.4265 52.4859 31.4265 56.4024C31.4265 62.7164 26.2187 67.8526 19.8178 67.8526Z" fill="url(#paint0_radial_3_7)"/>
<path d="M106.971 11.9982C102.085 6.48674 97.2631 2.34933 97.0607 2.17554L94.515 0L91.9694 2.17554C91.767 2.34933 86.9446 6.48674 82.0578 11.9982C74.9853 19.9755 71.5472 26.4663 71.5472 31.8428C71.5472 44.391 81.8503 54.599 94.515 54.599C107.179 54.599 117.482 44.391 117.482 31.8428C117.483 26.4673 114.044 19.9755 106.971 11.9982V11.9982ZM94.515 46.7648C86.1707 46.7648 79.3813 40.0706 79.3813 31.8428C79.3813 26.3252 87.832 16.6304 94.515 10.4084C101.198 16.6304 109.648 26.3252 109.648 31.8428C109.648 40.0716 102.859 46.7648 94.515 46.7648V46.7648Z" fill="url(#paint1_radial_3_7)"/>
<path d="M68.564 46.6493L66.0173 44.4697L63.4707 46.6493C63.119 46.9499 54.7583 54.1298 46.2668 63.7152C34.4547 77.0516 28.4648 88.1798 28.4648 96.791C28.4648 117.308 45.3109 134 66.0173 134C86.7248 134 103.571 117.308 103.571 96.791C103.571 88.1798 97.581 77.0516 85.7679 63.7152C77.2774 54.1298 68.9167 46.9499 68.564 46.6493ZM66.0173 126.166C49.6303 126.166 36.299 112.988 36.299 96.791C36.299 84.347 55.8369 64.0751 66.0184 54.8495C76.2009 64.07 95.7367 84.3317 95.7367 96.791C95.7367 112.988 82.4044 126.166 66.0173 126.166V126.166Z" fill="url(#paint2_radial_3_7)"/>
<path d="M68.017 117.852C78.6943 117.852 87.3811 110.021 87.3811 100.396H79.5459C79.5459 105.701 74.3739 110.017 68.017 110.017V117.852Z" fill="url(#paint3_radial_3_7)"/>
<defs>
<radialGradient id="paint0_radial_3_7" cx="0" cy="0" r="1" gradientUnits="userSpaceOnUse" gradientTransform="translate(19.8178 52.5825) rotate(90) scale(23.1054 19.4428)">
<stop stop-color="#F66280"/>
<stop offset="1" stop-color="#F88187"/>
</radialGradient>
<radialGradient id="paint1_radial_3_7" cx="0" cy="0" r="1" gradientUnits="userSpaceOnUse" gradientTransform="translate(94.5145 27.2995) rotate(90) scale(27.2995 22.9674)">
<stop stop-color="#F66280"/>
<stop offset="1" stop-color="#F88187"/>
</radialGradient>
<radialGradient id="paint2_radial_3_7" cx="0" cy="0" r="1" gradientUnits="userSpaceOnUse" gradientTransform="translate(66.0178 89.2348) rotate(90) scale(44.7652 37.5531)">
<stop stop-color="#F66280"/>
<stop offset="1" stop-color="#F88187"/>
</radialGradient>
<radialGradient id="paint3_radial_3_7" cx="0" cy="0" r="1" gradientUnits="userSpaceOnUse" gradientTransform="translate(77.6991 109.124) rotate(90) scale(8.72822 9.68206)">
<stop stop-color="#F66280"/>
<stop offset="1" stop-color="#F88187"/>
</radialGradient>
</defs>
</svg>
