<svg width="127" height="119" viewBox="0 0 127 119" fill="none" xmlns="http://www.w3.org/2000/svg">
<path d="M109.233 0.973831H17.7673C7.97048 0.973831 0 8.94407 0 18.7409V78.3922C0 88.1891 7.97048 96.1595 17.7673 96.1595H21.744C22.7715 96.1595 23.6043 95.3267 23.6043 94.2992C23.6043 93.2719 22.7715 92.4388 21.744 92.4388H17.7673C10.0221 92.4388 3.7207 86.1375 3.7207 78.3922V18.7409C3.7207 10.9957 10.0221 4.6943 17.7673 4.6943H109.233C116.978 4.69453 123.279 10.9957 123.279 18.7409V78.3922C123.279 86.1375 116.978 92.4388 109.233 92.4388H89.8315C87.7411 92.4388 85.7758 93.253 84.298 94.7308L65.5884 113.44C65.0305 113.998 64.2888 114.305 63.5 114.305C62.7112 114.305 61.9695 113.998 61.4116 113.44L42.7024 94.7308C41.2244 93.253 39.2591 92.4388 37.1687 92.4388H29.6976C28.6703 92.4388 27.8372 93.2719 27.8372 94.2992C27.8372 95.3267 28.6703 96.1595 29.6976 96.1595H37.1687C38.2651 96.1595 39.296 96.5866 40.0715 97.3619L58.781 116.071C60.0414 117.332 61.7176 118.026 63.5002 118.026C65.283 118.026 66.959 117.332 68.2196 116.071L86.9291 97.3619C87.7042 96.5868 88.7351 96.1595 89.8317 96.1595H109.233C119.03 96.1595 127 88.1891 127 78.3922V18.7409C127 8.94407 119.03 0.973831 109.233 0.973831Z" fill="#0F004A"/>
<path d="M49.8654 26.561C54.5362 26.561 58.9969 28.5844 62.1038 32.1126C62.457 32.5137 62.9658 32.7435 63.5 32.7435C64.0344 32.7435 64.5432 32.5135 64.8964 32.1126C68.0032 28.5844 72.464 26.561 77.1346 26.561C80.2569 26.561 83.2908 27.445 85.9084 29.1172C86.7741 29.6705 87.9245 29.4169 88.4777 28.5513C89.0308 27.6855 88.7776 26.5352 87.9116 25.9819C84.6947 23.9263 80.9681 22.8399 77.1346 22.8399C72.0632 22.8399 67.1953 24.7792 63.5 28.2183C59.8051 24.7792 54.9372 22.8399 49.8654 22.8399C38.8154 22.8399 29.8256 31.8299 29.8256 42.8799C29.8256 51.9294 35.3961 61.2925 46.3822 70.7093C54.3973 77.5792 62.2893 81.8369 62.6215 82.0147C63.1702 82.3086 63.8296 82.3086 64.3783 82.0147C64.7105 81.8369 72.6027 77.5792 80.6176 70.7093C91.6037 61.2925 97.1743 51.9294 97.1743 42.8799C97.1743 39.4544 96.2944 36.0731 94.6303 33.1009C94.1282 32.2045 92.9946 31.885 92.0982 32.3867C91.2017 32.8887 90.882 34.0226 91.384 34.9187C92.7382 37.3367 93.4537 40.0896 93.4537 42.8799C93.4537 60.1328 68.5362 75.344 63.5 78.241C58.4637 75.344 33.5465 60.133 33.5465 42.8799C33.5465 33.8817 40.867 26.561 49.8654 26.561Z" fill="#0F004A"/>
</svg>
