<svg width="126" height="130" viewBox="0 0 126 130" fill="none" xmlns="http://www.w3.org/2000/svg">
<path d="M75.7928 55.7428C75.7928 54.679 75.1293 53.7276 74.1307 53.3599L44.4587 42.4384C43.8925 42.2302 43.271 42.2302 42.7048 42.4384L13.0325 53.3597C12.0339 53.7273 11.3704 54.6785 11.3704 55.7426V74.6091C11.3704 84.0536 14.4714 93.2313 20.3384 101.149C25.8474 108.585 33.5448 114.526 42.5976 118.33C43.2227 118.593 43.9403 118.593 44.5654 118.33C53.6187 114.525 61.3161 108.584 66.8251 101.149C72.6916 93.2313 75.7925 84.0539 75.7925 74.6091V55.7428H75.7928ZM70.7147 74.6091C70.7147 82.9575 67.9588 91.0894 62.7451 98.1259C57.9777 104.56 51.368 109.763 43.5815 113.224C35.7955 109.764 29.186 104.56 24.4184 98.1261C19.2045 91.0891 16.4483 82.9573 16.4483 74.6091V57.5138L43.5812 47.5272L70.7142 57.5141V74.6091H70.7147Z" fill="url(#paint0_radial_2_19)"/>
<path d="M107.16 41.374C107.16 28.551 96.7274 18.1188 83.9043 18.1188C77.838 18.1188 72.0967 20.4407 67.7381 24.6568C64.2218 28.0582 61.9079 32.3982 61.0386 37.1264L44.4587 31.024C43.8925 30.8158 43.271 30.8158 42.7048 31.024L2.38216 45.8649C1.38355 46.2323 0.720093 47.1837 0.720093 48.2478V74.5123C0.720093 86.2987 4.56017 97.711 11.8249 107.515C19.0889 117.319 29.3165 124.876 41.402 129.37C42.0926 129.626 42.832 129.999 43.5815 129.999C44.3313 129.999 45.0712 129.626 45.762 129.369C54.1935 126.234 61.6736 121.647 67.9943 115.736C69.0183 114.778 69.0722 113.171 68.1144 112.147C67.1564 111.123 65.5497 111.069 64.5255 112.026C58.6986 117.477 51.7903 121.71 43.9931 124.609C43.8821 124.651 43.6991 124.761 43.5818 124.761C43.4647 124.761 43.2821 124.651 43.1714 124.61C32.0107 120.46 22.5824 113.503 15.9052 104.492C9.29324 95.5688 5.79822 85.2018 5.79822 74.5123V50.0188L43.5818 36.1123L81.3653 50.0188V74.5123C81.3653 81.5224 79.8726 88.3723 76.9283 94.8713C76.3499 96.1485 76.9161 97.6531 78.1932 98.2318C79.4706 98.8102 80.9753 98.2437 81.5539 96.9668C84.7981 89.8051 86.4432 82.2504 86.4432 74.5123V64.4924C98.0761 63.2234 107.16 53.3404 107.16 41.374V41.374ZM86.4434 59.377V48.2473C86.4434 47.1834 85.78 46.232 84.7813 45.8644L65.8938 38.9121C66.4366 34.8849 68.3079 31.1711 71.2687 28.3067C74.6754 25.0115 79.1626 23.1969 83.9043 23.1969C93.9273 23.1969 102.081 31.3511 102.081 41.374C102.081 50.5367 95.2689 58.1382 86.4434 59.377Z" fill="url(#paint1_radial_2_19)"/>
<path d="M83.9041 13.2864C85.3062 13.2864 86.4431 12.1494 86.4431 10.7473V2.53906C86.4431 1.13699 85.3062 0 83.9041 0C82.502 0 81.365 1.13699 81.365 2.53906V10.7473C81.365 12.1497 82.502 13.2864 83.9041 13.2864Z" fill="url(#paint2_radial_2_19)"/>
<path d="M60.4518 21.5132C60.9477 22.0088 61.5974 22.2569 62.2472 22.2569C62.8969 22.2569 63.5467 22.0088 64.0425 21.5132C65.034 20.5217 65.034 18.914 64.0425 17.9222L58.2385 12.1182C57.2467 11.1269 55.6395 11.1269 54.6475 12.1182C53.656 13.1097 53.656 14.7174 54.6475 15.7092L60.4518 21.5132Z" fill="url(#paint3_radial_2_19)"/>
<path d="M107.357 61.2369C106.366 60.2459 104.758 60.2456 103.766 61.2369C102.775 62.2284 102.775 63.8361 103.766 64.8279L109.57 70.6322C110.066 71.1278 110.716 71.3758 111.366 71.3758C112.015 71.3758 112.665 71.1278 113.161 70.6322C114.152 69.6406 114.152 68.0329 113.161 67.0412L107.357 61.2369Z" fill="url(#paint4_radial_2_19)"/>
<path d="M105.562 22.2569C106.212 22.2569 106.861 22.0088 107.357 21.5132L113.161 15.7092C114.153 14.7177 114.153 13.1099 113.161 12.1182C112.169 11.1269 110.562 11.1269 109.57 12.1182L103.766 17.9222C102.775 18.9137 102.775 20.5215 103.766 21.5132C104.262 22.0091 104.912 22.2569 105.562 22.2569Z" fill="url(#paint5_radial_2_19)"/>
<path d="M122.741 38.8362H114.533C113.13 38.8362 111.993 39.9732 111.993 41.3753C111.993 42.7774 113.13 43.9144 114.533 43.9144H122.741C124.143 43.9144 125.28 42.7774 125.28 41.3753C125.28 39.9732 124.143 38.8362 122.741 38.8362V38.8362Z" fill="url(#paint6_radial_2_19)"/>
<path d="M32.9423 77.917C31.9506 76.9257 30.3433 76.9257 29.3513 77.917C28.3598 78.9085 28.3598 80.5162 29.3513 81.508L37.926 90.0826C38.9045 91.0607 40.5384 91.0607 41.517 90.0826L60.5132 71.0864C61.5047 70.0949 61.5047 68.4871 60.5132 67.4954C59.5215 66.5041 57.9143 66.5041 56.9222 67.4954L39.7214 84.6965L32.9423 77.917Z" fill="url(#paint7_radial_2_19)"/>
<path d="M76.127 104.368C75.595 103.092 74.0901 102.463 72.8107 102.995C71.5323 103.525 70.9089 105.032 71.4371 106.311C71.9649 107.589 73.4762 108.214 74.7533 107.684C76.0353 107.152 76.652 105.65 76.127 104.368V104.368Z" fill="url(#paint8_radial_2_19)"/>
<defs>
<radialGradient id="paint0_radial_2_19" cx="0" cy="0" r="1" gradientUnits="userSpaceOnUse" gradientTransform="translate(43.5816 80.4048) rotate(90) scale(38.1226 32.2112)">
<stop stop-color="#F66280"/>
<stop offset="1" stop-color="#F88187"/>
</radialGradient>
<radialGradient id="paint1_radial_2_19" cx="0" cy="0" r="1" gradientUnits="userSpaceOnUse" gradientTransform="translate(53.9399 74.0591) rotate(90) scale(55.9404 53.2198)">
<stop stop-color="#F66280"/>
<stop offset="1" stop-color="#F88187"/>
</radialGradient>
<radialGradient id="paint2_radial_2_19" cx="0" cy="0" r="1" gradientUnits="userSpaceOnUse" gradientTransform="translate(83.9041 6.6432) rotate(90) scale(6.6432 2.53906)">
<stop stop-color="#F66280"/>
<stop offset="1" stop-color="#F88187"/>
</radialGradient>
<radialGradient id="paint3_radial_2_19" cx="0" cy="0" r="1" gradientUnits="userSpaceOnUse" gradientTransform="translate(59.345 16.8158) rotate(90) scale(5.44108 5.44114)">
<stop stop-color="#F66280"/>
<stop offset="1" stop-color="#F88187"/>
</radialGradient>
<radialGradient id="paint4_radial_2_19" cx="0" cy="0" r="1" gradientUnits="userSpaceOnUse" gradientTransform="translate(108.464 65.9347) rotate(90) scale(5.44116 5.44102)">
<stop stop-color="#F66280"/>
<stop offset="1" stop-color="#F88187"/>
</radialGradient>
<radialGradient id="paint5_radial_2_19" cx="0" cy="0" r="1" gradientUnits="userSpaceOnUse" gradientTransform="translate(108.464 16.8158) rotate(90) scale(5.44108 5.44115)">
<stop stop-color="#F66280"/>
<stop offset="1" stop-color="#F88187"/>
</radialGradient>
<radialGradient id="paint6_radial_2_19" cx="0" cy="0" r="1" gradientUnits="userSpaceOnUse" gradientTransform="translate(118.637 41.3753) rotate(90) scale(2.53906 6.6432)">
<stop stop-color="#F66280"/>
<stop offset="1" stop-color="#F88187"/>
</radialGradient>
<radialGradient id="paint7_radial_2_19" cx="0" cy="0" r="1" gradientUnits="userSpaceOnUse" gradientTransform="translate(44.9323 78.7841) rotate(90) scale(12.0321 16.3246)">
<stop stop-color="#F66280"/>
<stop offset="1" stop-color="#F88187"/>
</radialGradient>
<radialGradient id="paint8_radial_2_19" cx="0" cy="0" r="1" gradientUnits="userSpaceOnUse" gradientTransform="translate(73.7816 105.339) rotate(90) scale(2.53388 2.5327)">
<stop stop-color="#F66280"/>
<stop offset="1" stop-color="#F88187"/>
</radialGradient>
</defs>
</svg>
