<svg width="144" height="144" viewBox="0 0 144 144" fill="none" xmlns="http://www.w3.org/2000/svg">
<path d="M128.809 35.9209C124.853 35.9209 121.688 34.8132 118.998 32.5978C117.574 31.4901 116.308 30.2242 115.042 28.9582C114.251 28.167 113.301 27.3758 112.352 26.7429C110.611 25.4769 108.712 25.3187 106.813 26.5846C105.547 27.3758 104.44 28.3253 103.49 29.2747C102.382 30.3824 101.116 31.4901 99.8505 32.4396C93.9956 37.0286 86.7165 37.0286 80.8615 32.4396C79.5956 31.3319 78.3297 30.2242 77.222 29.1165C76.2725 28.167 75.3231 27.2176 74.0571 26.5846C72.4747 25.6352 70.8923 25.4769 69.3099 26.4264C67.8857 27.2176 66.6198 28.3253 65.5121 29.433C64.2461 30.5407 63.1384 31.6484 61.8725 32.5978C56.0176 37.0286 48.7385 37.0286 43.0418 32.2813C41.7758 31.1736 40.5099 30.0659 39.4022 28.9582C38.611 28.167 37.6615 27.3758 36.7121 26.5846C34.8132 25.3187 33.0725 25.3187 31.3319 26.4264C29.7494 27.3758 28.4835 28.6418 27.0593 29.9077C25.3187 31.4901 23.578 33.0725 21.5209 34.1802C15.9824 36.8703 10.6022 36.3956 5.6967 32.756C4.11428 31.6484 2.84834 30.3824 1.58241 29.1165C-6.66751e-06 27.5341 -0.158248 25.0022 1.42417 23.4198C3.00659 21.8374 5.38021 21.8374 7.12087 23.4198C8.07032 24.3692 9.01977 25.1604 9.96922 26.1099C12.5011 28.4835 16.2989 28.6418 19.1472 26.2681C20.7297 25.0022 22.1538 23.578 23.578 22.3121C25.3187 20.7297 27.0593 19.4637 29.2747 18.6725C33.0725 17.2484 36.5538 17.5648 40.0352 19.622C41.7758 20.5714 43.3582 21.8374 44.7824 23.2615C45.7319 24.211 46.6813 25.1604 47.789 25.9516C50.6374 28.6418 54.5934 28.6418 57.6 25.7934C59.1824 24.3692 60.6066 22.9451 62.189 21.6791C64.4044 19.7802 66.778 18.356 69.7846 17.8813C73.1077 17.2484 76.1143 18.1978 78.9626 20.0967C80.3868 21.0462 81.6527 21.9956 82.7604 23.2615C84.0264 24.3692 85.1341 25.6352 86.5582 26.7429C88.6154 28.3253 91.9385 28.4835 93.9956 27.0593C95.8945 25.7934 97.4769 24.211 99.0593 22.6286C100.8 21.2044 102.541 19.7802 104.598 18.8308C108.554 17.0901 112.352 17.4066 115.991 19.622C117.574 20.5714 119.156 21.8374 120.422 23.1033C121.53 24.0527 122.479 25.0022 123.587 26.1099C126.119 28.4835 130.075 28.6418 132.923 26.1099C134.347 25.0022 135.613 23.7363 136.879 22.4703C138.62 21.0462 140.835 21.0462 142.418 22.6286C143.684 23.8945 144.158 26.2681 142.892 27.6923C140.044 30.8571 137.037 33.7055 132.765 35.2879C131.341 35.6044 129.916 35.7626 128.809 35.9209V35.9209Z" fill="url(#paint0_radial_2_10)"/>
<path d="M127.226 93.5209C124.853 93.5209 121.846 92.5714 119.156 90.356C117.732 89.2483 116.308 87.9824 115.042 86.5582C114.092 85.6088 113.143 84.8176 112.035 84.0264C110.453 82.9187 108.87 82.7604 107.13 83.7099C105.547 84.6593 104.123 85.9253 102.857 87.1912C100.958 88.9319 99.2176 90.6725 97.0022 91.622C91.7802 94.1538 86.5582 93.6791 81.811 90.356C80.0703 89.2483 78.6462 87.8242 77.222 86.4C76.2725 85.4505 75.3231 84.6593 74.2154 83.8681C72.633 82.7604 71.0505 82.6022 69.3099 83.5516C67.7275 84.5011 66.3033 85.767 65.0374 87.033C62.822 89.0901 60.6066 91.1472 57.6 92.2549C52.6945 93.9956 47.9473 93.3626 43.6747 90.1978C42.0923 89.0901 40.6681 87.6659 39.244 86.2418C38.2945 85.2923 37.3451 84.5011 36.2374 83.7099C34.6549 82.7604 33.0725 82.6022 31.4901 83.5516C29.7494 84.5011 28.4835 85.767 27.0593 87.033C25.4769 88.6154 23.7363 90.0396 21.8374 91.1472C16.6154 94.1538 10.2857 93.6791 5.53846 89.8813C4.11428 88.7736 2.69011 87.5077 1.42417 86.0835C-0.158246 84.5011 -0.158246 82.1275 1.42417 80.5451C2.84835 78.9626 5.38022 78.9626 6.96263 80.3868C8.07033 81.3363 9.01978 82.444 10.1275 83.2352C12.6593 85.4505 15.6659 85.6088 18.5143 83.7099C20.2549 82.6022 21.6791 81.0198 23.1033 79.7538C25.0022 78.0132 27.0593 76.589 29.433 75.6396C33.2308 74.2154 36.7121 74.5319 40.0352 76.589C41.6176 77.5385 43.2 78.8044 44.6242 80.0703C45.7319 81.0198 46.6813 82.1275 47.789 83.0769C50.7956 85.6088 54.1187 85.6088 57.1253 83.0769C58.3912 81.9692 59.6571 80.7033 61.0813 79.5956C63.4549 77.5385 66.1451 75.7978 69.3099 75.0066C72.3165 74.3736 75.1648 75.0066 77.8549 76.589C79.7538 77.6967 81.4945 79.2791 83.0769 80.8615C83.8681 81.6527 84.6593 82.444 85.4506 83.0769C88.6154 85.767 92.0967 85.767 95.2615 82.9187C96.844 81.4945 98.4264 80.0703 100.009 78.6462C102.382 76.7473 104.914 75.1648 108.079 74.8483C110.769 74.5319 113.301 75.1648 115.516 76.4308C117.257 77.3802 118.84 78.8044 120.264 80.0703C121.371 81.178 122.479 82.1275 123.587 83.2352C125.802 85.2923 129.442 85.4505 131.974 83.5516C133.714 82.2857 135.138 80.7033 136.721 79.4374C138.778 77.6967 141.785 78.1714 142.892 80.5451C143.684 82.1275 143.367 84.0264 141.943 85.2923C140.835 87.5077 139.411 88.9319 137.67 90.1978C134.98 92.2549 131.815 93.5209 127.226 93.5209Z" fill="url(#paint1_radial_2_10)"/>
<path d="M128.334 64.7209C124.853 64.7209 121.688 63.6132 118.998 61.3978C117.732 60.2901 116.466 59.1824 115.2 57.9165C114.251 56.967 113.143 56.0176 112.035 55.3846C110.611 54.4352 109.029 54.4352 107.446 55.2264C105.864 56.1758 104.44 57.4418 103.015 58.7077C101.275 60.4484 99.3758 62.0308 97.1604 63.1385C91.7802 65.8286 86.5582 65.3538 81.4945 61.8725C79.9121 60.7648 78.4879 59.3407 77.0637 57.9165C76.1143 56.967 75.1648 56.1758 74.0571 55.3846C72.4747 54.4352 71.0505 54.2769 69.4681 55.2264C68.3604 55.8593 67.2527 56.6506 66.3033 57.4418C64.8791 58.7077 63.4549 60.1319 61.8725 61.2396C56.0176 65.8286 48.5802 65.8286 42.8835 61.2396C41.6176 60.1319 40.3516 59.0242 39.0857 57.7582C38.1363 56.8088 37.1868 56.0176 36.0791 55.2264C34.6549 54.2769 33.0725 54.2769 31.6483 55.0681C30.3824 55.7011 29.2747 56.6506 28.167 57.6C26.7429 58.8659 25.4769 60.1319 24.0527 61.2396C18.356 65.8286 10.2857 65.5121 5.06373 61.0813C3.95604 60.1319 2.6901 59.0242 1.58241 57.7582C-5.03659e-06 56.1758 -5.03659e-06 53.644 1.58241 52.2198C3.16483 50.6374 5.53846 50.6374 7.12087 52.0615C8.22857 53.1692 9.33626 54.2769 10.6022 55.2264C12.8176 56.967 15.8242 57.1253 18.1978 55.7011C19.9385 54.5934 21.3626 53.011 22.9451 51.7451C24.844 50.0044 26.9011 48.422 29.2747 47.4725C33.0725 45.8901 36.8703 46.2066 40.3516 48.422C42.2505 49.5297 43.833 50.9539 45.4154 52.5363C46.3648 53.4857 47.156 54.2769 48.2637 55.0681C50.7956 57.2835 53.8022 57.4418 56.6505 55.5429C58.3912 54.4352 59.8154 52.8527 61.2396 51.5868C62.9802 50.0044 65.0374 48.5802 67.2527 47.6308C71.0505 46.0484 74.8483 46.3648 78.3297 48.5802C80.8615 50.1626 82.9187 52.378 85.1341 54.4352C86.2418 55.5429 87.5077 56.4923 89.0901 56.8088C91.622 57.2835 93.6791 56.4923 95.4198 54.7517C96.6857 53.644 97.9516 52.5363 99.0593 51.4286C100.958 49.8462 102.857 48.422 105.231 47.4725C108.87 46.0484 112.51 46.5231 115.833 48.422C117.574 49.5297 119.156 50.7956 120.58 52.2198C121.53 53.1692 122.479 53.9604 123.429 54.9099C126.593 57.6 130.075 57.6 133.24 54.9099C134.505 53.8022 135.613 52.6945 136.879 51.5868C138.62 50.0044 140.993 50.0044 142.576 51.7451C144.158 53.3275 144 55.7011 142.418 57.2835C140.202 59.3407 138.145 61.556 135.455 62.9802C133.24 64.0879 130.866 64.7209 128.334 64.7209V64.7209Z" fill="url(#paint2_radial_2_10)"/>
<path d="M127.543 122.321C123.903 122.479 120.422 120.422 117.415 117.574C115.833 116.149 114.409 114.409 112.668 113.301C110.611 111.877 109.029 111.719 106.971 113.143C105.389 114.092 104.123 115.358 102.857 116.624C101.116 118.365 99.2176 119.947 97.0022 121.055C91.7802 123.429 86.7165 123.112 81.9692 119.789C80.3868 118.681 78.9626 117.257 77.5385 115.833C76.589 114.884 75.6396 114.092 74.5319 113.301C72.7912 112.193 71.2088 112.035 69.4681 113.143C67.8857 114.092 66.6198 115.358 65.1956 116.624C63.4549 118.207 61.8725 119.789 59.8154 120.897C54.5934 123.745 48.422 123.27 43.833 119.631C42.2505 118.365 40.8264 116.941 39.2439 115.516C38.2945 114.725 37.345 113.934 36.3956 113.301C34.9714 112.51 33.5472 112.352 31.9648 113.143C30.8571 113.776 29.7494 114.567 28.8 115.516C26.4264 117.574 24.3692 119.947 21.3626 121.371C16.1407 123.745 11.0769 123.429 6.32966 120.106C4.58901 118.998 3.16483 117.415 1.74065 115.991C0.158236 114.409 0.158236 112.035 1.74065 110.453C3.32307 108.87 5.6967 108.712 7.27911 110.295C8.38681 111.402 9.4945 112.51 10.7604 113.459C13.2923 115.358 15.9824 115.516 18.6725 113.776C20.2549 112.826 21.5209 111.402 22.945 110.136C25.0022 108.237 27.3758 106.497 30.0659 105.547C33.8637 104.123 37.345 104.598 40.6681 106.655C42.2505 107.604 43.833 108.87 45.2571 110.295C46.3648 111.244 47.3143 112.352 48.422 113.301C50.9538 115.516 53.9604 115.675 56.8088 113.776C58.5494 112.668 59.8154 111.086 61.3978 109.82C63.2967 108.079 65.5121 106.497 67.8857 105.706C71.5253 104.281 75.0066 104.756 78.4879 106.655C80.2286 107.604 81.6527 108.87 83.0769 110.295C84.1846 111.402 85.2923 112.51 86.5582 113.459C89.0901 115.516 92.0967 115.675 94.7868 113.776C96.5275 112.668 97.7934 111.086 99.3758 109.82C101.275 108.237 103.174 106.813 105.389 105.864C109.187 104.281 112.985 104.598 116.466 106.813C118.365 107.921 119.947 109.345 121.371 110.769C122.163 111.56 122.954 112.352 123.903 112.985C127.068 115.675 130.391 115.675 133.556 112.985C134.822 111.877 136.088 110.769 137.196 109.662C139.569 107.604 143.209 108.554 143.842 111.56C144.158 112.826 144 114.092 143.051 114.884C140.677 117.257 138.303 119.631 135.297 121.213C132.923 121.846 130.708 122.321 127.543 122.321V122.321Z" fill="url(#paint3_radial_2_10)"/>
<defs>
<radialGradient id="paint0_radial_2_10" cx="0" cy="0" r="1" gradientUnits="userSpaceOnUse" gradientTransform="translate(71.9753 26.8035) rotate(90) scale(9.11742 71.6618)">
<stop stop-color="#F66280"/>
<stop offset="1" stop-color="#F88187"/>
</radialGradient>
<radialGradient id="paint1_radial_2_10" cx="0" cy="0" r="1" gradientUnits="userSpaceOnUse" gradientTransform="translate(71.7768 84.1425) rotate(90) scale(9.37842 71.5394)">
<stop stop-color="#F66280"/>
<stop offset="1" stop-color="#F88187"/>
</radialGradient>
<radialGradient id="paint2_radial_2_10" cx="0" cy="0" r="1" gradientUnits="userSpaceOnUse" gradientTransform="translate(72.041 55.6746) rotate(90) scale(9.19112 71.6454)">
<stop stop-color="#F66280"/>
<stop offset="1" stop-color="#F88187"/>
</radialGradient>
<radialGradient id="paint3_radial_2_10" cx="0" cy="0" r="1" gradientUnits="userSpaceOnUse" gradientTransform="translate(72.2719 113.822) rotate(90) scale(9.09371 71.718)">
<stop stop-color="#F66280"/>
<stop offset="1" stop-color="#F88187"/>
</radialGradient>
</defs>
</svg>
