<svg width="135" height="135" viewBox="0 0 135 135" fill="none" xmlns="http://www.w3.org/2000/svg">
<path d="M114.598 23.5881C109.149 23.5881 104.025 25.7101 100.172 29.5637C98.6275 31.1083 98.6275 33.6124 100.172 35.157C101.716 36.7015 104.221 36.7015 105.765 35.157C108.125 32.7976 111.262 31.4982 114.598 31.4982C121.486 31.4982 127.09 37.1018 127.09 43.9897C127.09 50.8776 121.486 56.4812 114.598 56.4812H36.6994C34.5152 56.4812 32.7444 58.252 32.7444 60.4362C32.7444 62.6205 34.5152 64.3913 36.6994 64.3913H114.598C125.848 64.3913 135 55.2393 135 43.9897C135 32.7401 125.848 23.5881 114.598 23.5881V23.5881Z" fill="url(#paint0_radial_2_3)"/>
<path d="M60.7729 74.423H3.95508C1.77082 74.423 0 76.1938 0 78.3781C0 80.5623 1.77082 82.3331 3.95508 82.3331H60.7729C67.6608 82.3331 73.2647 87.9369 73.2647 94.8246C73.2647 101.712 67.6608 107.316 60.7729 107.316C57.4364 107.316 54.2993 106.017 51.9405 103.658C50.3956 102.113 47.8912 102.113 46.3469 103.657C44.8026 105.202 44.8023 107.706 46.3467 109.251C50.2 113.104 55.3234 115.226 60.7729 115.226C72.0225 115.226 81.1748 106.074 81.1748 94.8246C81.1748 83.5753 72.0225 74.423 60.7729 74.423Z" fill="url(#paint1_radial_2_3)"/>
<path d="M110.216 74.423H90.4927C88.3084 74.423 86.5376 76.1938 86.5376 78.3781C86.5376 80.5623 88.3084 82.3331 90.4927 82.3331H110.216C114.135 82.3331 117.323 85.5212 117.323 89.4399C117.323 93.3586 114.135 96.5466 110.216 96.5466C108.319 96.5466 106.533 95.8073 105.191 94.4649C103.647 92.9206 101.142 92.9206 99.5976 94.4652C98.053 96.0098 98.0535 98.5141 99.5981 100.058C102.435 102.895 106.205 104.457 110.216 104.457C118.497 104.457 125.233 97.72 125.233 89.4396C125.233 81.1593 118.497 74.423 110.216 74.423Z" fill="url(#paint2_radial_2_3)"/>
<path d="M3.95508 46.4498H69.4438C71.628 46.4498 73.3989 44.6789 73.3989 42.4947C73.3989 40.3104 71.628 38.5396 69.4438 38.5396H3.95508C1.77082 38.5396 0 40.3104 0 42.4947C0 44.6789 1.77082 46.4498 3.95508 46.4498Z" fill="url(#paint3_radial_2_3)"/>
<path d="M48.3804 27.6837H84.2621C86.4464 27.6837 88.2172 25.9129 88.2172 23.7286C88.2172 21.5444 86.4464 19.7735 84.2621 19.7735H48.3804C46.1961 19.7735 44.4253 21.5444 44.4253 23.7286C44.4253 25.9129 46.1961 27.6837 48.3804 27.6837Z" fill="url(#paint4_radial_2_3)"/>
<path d="M16.1697 56.4812C13.9854 56.4812 12.2146 58.252 12.2146 60.4362C12.2146 62.6205 13.9854 64.3913 16.1697 64.3913H20.8791C23.0634 64.3913 24.8342 62.6205 24.8342 60.4362C24.8342 58.252 23.0634 56.4812 20.8791 56.4812H16.1697Z" fill="url(#paint5_radial_2_3)"/>
<defs>
<radialGradient id="paint0_radial_2_3" cx="0" cy="0" r="1" gradientUnits="userSpaceOnUse" gradientTransform="translate(83.8722 43.9897) rotate(90) scale(20.4016 51.1278)">
<stop stop-color="#F66280"/>
<stop offset="1" stop-color="#F88187"/>
</radialGradient>
<radialGradient id="paint1_radial_2_3" cx="0" cy="0" r="1" gradientUnits="userSpaceOnUse" gradientTransform="translate(40.5874 94.8247) rotate(90) scale(20.4017 40.5874)">
<stop stop-color="#F66280"/>
<stop offset="1" stop-color="#F88187"/>
</radialGradient>
<radialGradient id="paint2_radial_2_3" cx="0" cy="0" r="1" gradientUnits="userSpaceOnUse" gradientTransform="translate(105.885 89.4397) rotate(90) scale(15.0168 19.3477)">
<stop stop-color="#F66280"/>
<stop offset="1" stop-color="#F88187"/>
</radialGradient>
<radialGradient id="paint3_radial_2_3" cx="0" cy="0" r="1" gradientUnits="userSpaceOnUse" gradientTransform="translate(36.6994 42.4947) rotate(90) scale(3.95508 36.6994)">
<stop stop-color="#F66280"/>
<stop offset="1" stop-color="#F88187"/>
</radialGradient>
<radialGradient id="paint4_radial_2_3" cx="0" cy="0" r="1" gradientUnits="userSpaceOnUse" gradientTransform="translate(66.3212 23.7286) rotate(90) scale(3.95508 21.896)">
<stop stop-color="#F66280"/>
<stop offset="1" stop-color="#F88187"/>
</radialGradient>
<radialGradient id="paint5_radial_2_3" cx="0" cy="0" r="1" gradientUnits="userSpaceOnUse" gradientTransform="translate(18.5244 60.4362) rotate(90) scale(3.95508 6.3098)">
<stop stop-color="#F66280"/>
<stop offset="1" stop-color="#F88187"/>
</radialGradient>
</defs>
</svg>
